<svg width="36" height="36" viewBox="0 0 24 24" fill="none" xmlns="http://www.w3.org/2000/svg">
    <g id="directions_boat_24px">
        <g id="icon/maps/directions_boat_24px">
            <path fillRule="evenodd" clipRule="evenodd" d="M3.95117 19H4.00117C5.42117 19 6.70117 18.3 7.66117 17.36C7.85117 17.18 8.16117 17.18 8.35117 17.36C9.30117 18.3 10.5812 19 12.0012 19C13.4212 19 14.7012 18.3 15.6612 17.36C15.8512 17.17 16.1512 17.17 16.3512 17.36C17.3012 18.3 18.5812 19 20.0012 19H20.0512L21.9412 12.32C22.0212 12.06 22.0012 11.78 21.8812 11.54C21.7612 11.3 21.5412 11.12 21.2812 11.04L20.0012 10.62V6C20.0012 4.9 19.1012 4 18.0012 4H15.0012V2C15.0012 1.45 14.5512 1 14.0012 1H10.0012C9.45117 1 9.00117 1.45 9.00117 2V4H6.00117C4.90117 4 4.00117 4.9 4.00117 6V10.62L2.71117 11.04C2.45117 11.12 2.23117 11.3 2.11117 11.54C1.99117 11.78 1.96117 12.06 2.05117 12.32L3.95117 19ZM20.0012 21C18.7112 21 17.4212 20.59 16.2612 19.86C16.1012 19.76 15.8912 19.76 15.7312 19.86C13.4212 21.33 10.5712 21.33 8.26117 19.86C8.10117 19.76 7.89117 19.76 7.73117 19.86C6.58117 20.59 5.29117 21 4.00117 21H3.00117C2.45117 21 2.00117 21.45 2.00117 22C2.00117 22.55 2.45117 23 3.00117 23H4.00117C5.38117 23 6.74117 22.65 8.00117 22.01C10.5212 23.3 13.4812 23.3 16.0012 22.01C17.2612 22.66 18.6212 23 20.0012 23H21.0012C21.5512 23 22.0012 22.55 22.0012 22C22.0012 21.45 21.5512 21 21.0012 21H20.0012ZM17.0012 6H7.00117C6.45117 6 6.00117 6.45 6.00117 7V9.97L11.3712 8.2C11.7812 8.07 12.2112 8.07 12.6212 8.2L18.0012 9.97V7C18.0012 6.45 17.5512 6 17.0012 6Z" fill="#000" />
            <path d="M3.95117 19L3.47025 19.1368L3.57355 19.5H3.95117V19ZM7.66117 17.36L7.31725 16.997L7.31136 17.0027L7.66117 17.36ZM8.35117 17.36L8.70293 17.0045L8.69504 16.997L8.35117 17.36ZM15.6612 17.36L16.011 17.7173L16.0147 17.7136L15.6612 17.36ZM16.3512 17.36L16.7029 17.0045L16.6955 16.9975L16.3512 17.36ZM20.0512 19V19.5H20.4293L20.5323 19.1361L20.0512 19ZM21.9412 12.32L21.4632 12.1729L21.4601 12.1839L21.9412 12.32ZM21.2812 11.04L21.1253 11.5152L21.1341 11.5179L21.2812 11.04ZM20.0012 10.62H19.5012V10.9822L19.8453 11.0951L20.0012 10.62ZM15.0012 4H14.5012V4.5H15.0012V4ZM9.00117 4V4.5H9.50117V4H9.00117ZM4.00117 10.62L4.15596 11.0954L4.50117 10.983V10.62H4.00117ZM2.71117 11.04L2.85823 11.518L2.86596 11.5154L2.71117 11.04ZM2.05117 12.32L2.53209 12.1832L2.52825 12.1697L2.52366 12.1564L2.05117 12.32ZM16.2612 19.86L16.5275 19.4368L16.5262 19.436L16.2612 19.86ZM15.7312 19.86L15.4662 19.436L15.4627 19.4382L15.7312 19.86ZM8.26117 19.86L8.52962 19.4382L8.52617 19.436L8.26117 19.86ZM7.73117 19.86L7.46616 19.436L7.46321 19.4379L7.73117 19.86ZM8.00117 22.01L8.22901 21.5649L8.00205 21.4487L7.77474 21.5642L8.00117 22.01ZM16.0012 22.01L16.2304 21.5656L16.0021 21.4478L15.7733 21.5649L16.0012 22.01ZM6.00117 9.97H5.50117V10.6613L6.15769 10.4449L6.00117 9.97ZM11.3712 8.2L11.22 7.72335L11.2146 7.72513L11.3712 8.2ZM12.6212 8.2L12.7774 7.72502L12.7723 7.72338L12.6212 8.2ZM18.0012 9.97L17.8449 10.445L18.5012 10.6609V9.97H18.0012ZM4.00117 18.5H3.95117V19.5H4.00117V18.5ZM7.31136 17.0027C6.41465 17.8808 5.25351 18.5 4.00117 18.5V19.5C5.58883 19.5 6.98769 18.7192 8.01098 17.7173L7.31136 17.0027ZM8.69504 16.997C8.31219 16.6343 7.70015 16.6343 7.3173 16.997L8.00504 17.723C8.0041 17.7239 8.00315 17.7246 8.00236 17.7251C8.00159 17.7256 8.00118 17.7257 8.00124 17.7257C8.00157 17.7256 8.00335 17.725 8.00617 17.725C8.00899 17.725 8.01077 17.7256 8.0111 17.7257C8.01116 17.7257 8.01075 17.7256 8.00998 17.7251C8.00919 17.7246 8.00824 17.7239 8.0073 17.723L8.69504 16.997ZM12.0012 18.5C10.7487 18.5 9.58819 17.8806 8.70285 17.0046L7.99949 17.7154C9.01415 18.7194 10.4137 19.5 12.0012 19.5V18.5ZM15.3114 17.0027C14.4147 17.8808 13.2535 18.5 12.0012 18.5V19.5C13.5888 19.5 14.9877 18.7192 16.011 17.7173L15.3114 17.0027ZM16.6955 16.9975C16.3077 16.629 15.6977 16.6163 15.3076 17.0064L16.0147 17.7136C16.0153 17.713 16.0139 17.7144 16.0106 17.7158C16.0075 17.717 16.0046 17.7175 16.0024 17.7175C16.0002 17.7175 15.9993 17.7171 15.9996 17.7172C15.9997 17.7172 16.0023 17.7183 16.0068 17.7225L16.6955 16.9975ZM20.0012 18.5C18.7487 18.5 17.5882 17.8806 16.7028 17.0046L15.9995 17.7154C17.0142 18.7194 18.4137 19.5 20.0012 19.5V18.5ZM20.0512 18.5H20.0012V19.5H20.0512V18.5ZM21.4601 12.1839L19.5701 18.8639L20.5323 19.1361L22.4223 12.4561L21.4601 12.1839ZM21.434 11.7636C21.4941 11.884 21.507 12.0308 21.4633 12.173L22.4191 12.467C22.5353 12.0892 22.5082 11.676 22.3284 11.3164L21.434 11.7636ZM21.1341 11.5179C21.2709 11.56 21.3784 11.6525 21.434 11.7636L22.3284 11.3164C22.1439 10.9475 21.8115 10.68 21.4282 10.5621L21.1341 11.5179ZM19.8453 11.0951L21.1253 11.5151L21.4371 10.5649L20.1571 10.1449L19.8453 11.0951ZM19.5012 6V10.62H20.5012V6H19.5012ZM18.0012 4.5C18.825 4.5 19.5012 5.17614 19.5012 6H20.5012C20.5012 4.62386 19.3773 3.5 18.0012 3.5V4.5ZM15.0012 4.5H18.0012V3.5H15.0012V4.5ZM14.5012 2V4H15.5012V2H14.5012ZM14.0012 1.5C14.275 1.5 14.5012 1.72614 14.5012 2H15.5012C15.5012 1.17386 14.8273 0.5 14.0012 0.5V1.5ZM10.0012 1.5H14.0012V0.5H10.0012V1.5ZM9.50117 2C9.50117 1.72614 9.72731 1.5 10.0012 1.5V0.5C9.17503 0.5 8.50117 1.17386 8.50117 2H9.50117ZM9.50117 4V2H8.50117V4H9.50117ZM6.00117 4.5H9.00117V3.5H6.00117V4.5ZM4.50117 6C4.50117 5.17614 5.17731 4.5 6.00117 4.5V3.5C4.62503 3.5 3.50117 4.62386 3.50117 6H4.50117ZM4.50117 10.62V6H3.50117V10.62H4.50117ZM2.86596 11.5154L4.15596 11.0954L3.84638 10.1446L2.55638 10.5646L2.86596 11.5154ZM2.55838 11.7636C2.61392 11.6525 2.72145 11.56 2.85821 11.5179L2.56413 10.5621C2.18089 10.68 1.84842 10.9475 1.66396 11.3164L2.55838 11.7636ZM2.52366 12.1564C2.4822 12.0367 2.49213 11.8961 2.55838 11.7636L1.66396 11.3164C1.49022 11.6639 1.44014 12.0833 1.57868 12.4836L2.52366 12.1564ZM4.4321 18.8632L2.53209 12.1832L1.57025 12.4568L3.47025 19.1368L4.4321 18.8632ZM15.9949 20.2832C17.2237 21.0565 18.6048 21.5 20.0012 21.5V20.5C18.8176 20.5 17.6187 20.1235 16.5275 19.4368L15.9949 20.2832ZM15.9962 20.284L16.5262 19.436C16.204 19.2347 15.7883 19.2347 15.4662 19.436L15.9962 20.284ZM7.99273 20.2818C10.4665 21.8561 13.5258 21.8561 15.9996 20.2818L15.4627 19.4382C13.3165 20.8039 10.6758 20.8039 8.52961 19.4382L7.99273 20.2818ZM7.99617 20.284V20.284L8.52617 19.436C8.20404 19.2347 7.78831 19.2347 7.46617 19.436L7.99617 20.284ZM4.00117 21.5C5.39732 21.5 6.77907 21.0566 7.99913 20.2821L7.46321 19.4379C6.38327 20.1234 5.18502 20.5 4.00117 20.5V21.5ZM3.00117 21.5H4.00117V20.5H3.00117V21.5ZM2.50117 22C2.50117 21.7261 2.72731 21.5 3.00117 21.5V20.5C2.17503 20.5 1.50117 21.1739 1.50117 22H2.50117ZM3.00117 22.5C2.72731 22.5 2.50117 22.2739 2.50117 22H1.50117C1.50117 22.8261 2.17503 23.5 3.00117 23.5V22.5ZM4.00117 22.5H3.00117V23.5H4.00117V22.5ZM7.77474 21.5642C6.57866 22.1717 5.29577 22.5 4.00117 22.5V23.5C5.46657 23.5 6.90368 23.1283 8.2276 22.4558L7.77474 21.5642ZM15.7733 21.5649C13.3964 22.7817 10.6059 22.7817 8.22901 21.5649L7.77333 22.4551C10.4364 23.8183 13.5659 23.8183 16.229 22.4551L15.7733 21.5649ZM20.0012 22.5C18.7044 22.5 17.4227 22.1807 16.2304 21.5656L15.7719 22.4544C17.0997 23.1393 18.538 23.5 20.0012 23.5V22.5ZM21.0012 22.5H20.0012V23.5H21.0012V22.5ZM21.5012 22C21.5012 22.2739 21.275 22.5 21.0012 22.5V23.5C21.8273 23.5 22.5012 22.8261 22.5012 22H21.5012ZM21.0012 21.5C21.275 21.5 21.5012 21.7261 21.5012 22H22.5012C22.5012 21.1739 21.8273 20.5 21.0012 20.5V21.5ZM20.0012 21.5H21.0012V20.5H20.0012V21.5ZM7.00117 6.5H17.0012V5.5H7.00117V6.5ZM6.50117 7C6.50117 6.72614 6.72731 6.5 7.00117 6.5V5.5C6.17503 5.5 5.50117 6.17386 5.50117 7H6.50117ZM6.50117 9.97V7H5.50117V9.97H6.50117ZM11.2146 7.72513L5.84465 9.49513L6.15769 10.4449L11.5277 8.67487L11.2146 7.72513ZM12.7723 7.72338C12.264 7.56221 11.7284 7.56221 11.22 7.72338L11.5223 8.67662C11.834 8.5778 12.1584 8.5778 12.47 8.67662L12.7723 7.72338ZM18.1574 9.49504L12.7774 7.72504L12.4649 8.67496L17.8449 10.445L18.1574 9.49504ZM17.5012 7V9.97H18.5012V7H17.5012ZM17.0012 6.5C17.275 6.5 17.5012 6.72614 17.5012 7H18.5012C18.5012 6.17386 17.8273 5.5 17.0012 5.5V6.5Z" fill="#FFF" />
        </g>
    </g>
</svg>